<svg width="252" height="134" viewBox="0 0 252 134" fill="none" xmlns="http://www.w3.org/2000/svg">
<ellipse cx="86" cy="67" rx="86" ry="67" fill="#577998"/>
<path d="M100.918 44.3164C100.785 46.1523 100.105 47.5977 98.8789 48.6523C97.6602 49.707 96.0508 50.2344 94.0508 50.2344C91.8633 50.2344 90.1406 49.5 88.8828 48.0312C87.6328 46.5547 87.0078 44.5312 87.0078 41.9609V40.918C87.0078 39.2773 87.2969 37.832 87.875 36.582C88.4531 35.332 89.2773 34.375 90.3477 33.7109C91.4258 33.0391 92.6758 32.7031 94.0977 32.7031C96.0664 32.7031 97.6523 33.2305 98.8555 34.2852C100.059 35.3398 100.754 36.8203 100.941 38.7266H97.4258C97.3398 37.625 97.0312 36.8281 96.5 36.3359C95.9766 35.8359 95.1758 35.5859 94.0977 35.5859C92.9258 35.5859 92.0469 36.0078 91.4609 36.8516C90.8828 37.6875 90.5859 38.9883 90.5703 40.7539V42.043C90.5703 43.8867 90.8477 45.2344 91.4023 46.0859C91.9648 46.9375 92.8477 47.3633 94.0508 47.3633C95.1367 47.3633 95.9453 47.1172 96.4766 46.625C97.0156 46.125 97.3242 45.3555 97.4023 44.3164H100.918ZM117.242 41.8555C117.242 43.5352 116.945 45.0078 116.352 46.2734C115.758 47.5391 114.906 48.5156 113.797 49.2031C112.695 49.8906 111.43 50.2344 110 50.2344C108.586 50.2344 107.324 49.8945 106.215 49.2148C105.105 48.5352 104.246 47.5664 103.637 46.3086C103.027 45.043 102.719 43.5898 102.711 41.9492V41.1055C102.711 39.4258 103.012 37.9492 103.613 36.6758C104.223 35.3945 105.078 34.4141 106.18 33.7344C107.289 33.0469 108.555 32.7031 109.977 32.7031C111.398 32.7031 112.66 33.0469 113.762 33.7344C114.871 34.4141 115.727 35.3945 116.328 36.6758C116.938 37.9492 117.242 39.4219 117.242 41.0938V41.8555ZM113.68 41.082C113.68 39.293 113.359 37.9336 112.719 37.0039C112.078 36.0742 111.164 35.6094 109.977 35.6094C108.797 35.6094 107.887 36.0703 107.246 36.9922C106.605 37.9062 106.281 39.25 106.273 41.0234V41.8555C106.273 43.5977 106.594 44.9492 107.234 45.9102C107.875 46.8711 108.797 47.3516 110 47.3516C111.18 47.3516 112.086 46.8906 112.719 45.9688C113.352 45.0391 113.672 43.6875 113.68 41.9141V41.082ZM128.211 37.6367C128.211 36.9883 127.957 36.4805 127.449 36.1133C126.941 35.7383 126.27 35.5508 125.434 35.5508C124.684 35.5508 124.059 35.7383 123.559 36.1133C123.066 36.4805 122.82 36.9609 122.82 37.5547H119.305C119.305 36.6328 119.562 35.8047 120.078 35.0703C120.602 34.3281 121.34 33.75 122.293 33.3359C123.254 32.9219 124.301 32.7148 125.434 32.7148C127.402 32.7148 128.945 33.1367 130.062 33.9805C131.18 34.8242 131.738 36.0195 131.738 37.5664C131.738 38.3242 131.508 39.0273 131.047 39.6758C130.594 40.3242 129.945 40.8438 129.102 41.2344C130.039 41.5625 130.758 42.0625 131.258 42.7344C131.758 43.3984 132.008 44.2266 132.008 45.2188C132.008 46.75 131.406 47.9688 130.203 48.875C129.008 49.7734 127.418 50.2227 125.434 50.2227C124.191 50.2227 123.074 50.0117 122.082 49.5898C121.09 49.1602 120.336 48.5781 119.82 47.8438C119.312 47.1016 119.059 46.2422 119.059 45.2656H122.598C122.598 45.875 122.863 46.3867 123.395 46.8008C123.926 47.207 124.605 47.4102 125.434 47.4102C126.371 47.4102 127.109 47.1992 127.648 46.7773C128.195 46.3555 128.469 45.8203 128.469 45.1719C128.469 44.2812 128.227 43.6445 127.742 43.2617C127.258 42.8711 126.551 42.6758 125.621 42.6758H123.523V39.9219H125.691C127.371 39.8984 128.211 39.1367 128.211 37.6367ZM150.43 54.1953H147.184V50H136.895V54.1836H133.566L133.379 47.1758H134.668C135.363 46.5977 135.898 45.75 136.273 44.6328C136.656 43.5078 136.914 42.1172 137.047 40.4609L137.539 32.9375H148.719V47.1758H150.711L150.43 54.1953ZM138.699 47.1758H145.203V35.7852H140.879L140.586 40.2734C140.352 43.2812 139.723 45.582 138.699 47.1758ZM162.383 46.4844H156.219L155.047 50H151.309L157.66 32.9375H160.918L167.305 50H163.566L162.383 46.4844ZM157.168 43.6367H161.434L159.289 37.25L157.168 43.6367ZM173.492 32.9375L177.875 45.3125L182.234 32.9375H186.852V50H183.324V45.3359L183.676 37.2852L179.07 50H176.656L172.062 37.2969L172.414 45.3359V50H168.898V32.9375H173.492ZM87.5234 78V60.9375H93.5C95.5703 60.9375 97.1406 61.3359 98.2109 62.1328C99.2812 62.9219 99.8164 64.082 99.8164 65.6133C99.8164 66.4492 99.6016 67.1875 99.1719 67.8281C98.7422 68.4609 98.1445 68.9258 97.3789 69.2227C98.2539 69.4414 98.9414 69.8828 99.4414 70.5469C99.9492 71.2109 100.203 72.0234 100.203 72.9844C100.203 74.625 99.6797 75.8672 98.6328 76.7109C97.5859 77.5547 96.0938 77.9844 94.1562 78H87.5234ZM91.0391 70.5703V75.1758H94.0508C94.8789 75.1758 95.5234 74.9805 95.9844 74.5898C96.4531 74.1914 96.6875 73.6445 96.6875 72.9492C96.6875 71.3867 95.8789 70.5938 94.2617 70.5703H91.0391ZM91.0391 68.0859H93.6406C95.4141 68.0547 96.3008 67.3477 96.3008 65.9648C96.3008 65.1914 96.0742 64.6367 95.6211 64.3008C95.1758 63.957 94.4688 63.7852 93.5 63.7852H91.0391V68.0859ZM112.484 74.4844H106.32L105.148 78H101.41L107.762 60.9375H111.02L117.406 78H113.668L112.484 74.4844ZM107.27 71.6367H111.535L109.391 65.25L107.27 71.6367ZM122.504 60.9375V75.1758H127.238V60.9375H130.766V75.1758H135.453V60.9375H138.969V78H118.977V60.9375H122.504ZM161.867 60.9375V78H158.34V63.7852H153.793L153.512 69.8086C153.395 71.8398 153.137 73.4414 152.738 74.6133C152.34 75.7773 151.758 76.6328 150.992 77.1797C150.227 77.7188 149.18 77.9922 147.852 78H146.938V75.1758L147.523 75.1172C148.406 75 149.035 74.4922 149.41 73.5938C149.793 72.6875 150.035 71.0781 150.137 68.7656L150.43 60.9375H161.867ZM171.336 69L174.441 60.9375H178.238L172.273 75.0117L171.793 75.9375C170.91 77.4766 169.559 78.2461 167.738 78.2461L166.508 78.1992L166.473 75.375C166.66 75.4062 166.965 75.4219 167.387 75.4219C167.879 75.4219 168.273 75.3359 168.57 75.1641C168.875 74.9922 169.129 74.6758 169.332 74.2148L169.766 73.1016L163.777 60.9375H167.562L171.336 69ZM193.719 60.9375V78H190.191V71.5312C189.121 71.7578 188.004 71.8711 186.84 71.8711C184.676 71.8711 183.031 71.3984 181.906 70.4531C180.789 69.5078 180.215 68.1406 180.184 66.3516V60.9375H183.711V66.2812C183.719 67.2578 183.953 67.9609 184.414 68.3906C184.883 68.8203 185.691 69.0352 186.84 69.0352C188.004 69.0352 189.121 68.9219 190.191 68.6953V60.9375H193.719ZM200.293 60.9375V75.1758H205.027V60.9375H208.555V75.1758H213.242V60.9375H216.758V78H196.766V60.9375H200.293ZM230.035 60.9375H233.562V78H230.035V66.668L223.203 78H219.688V60.9375H223.203V72.293L230.035 60.9375ZM246.84 60.9375H250.367V78H246.84V66.668L240.008 78H236.492V60.9375H240.008V72.293L246.84 60.9375ZM247.52 56.4492C247.52 57.4883 247.145 58.3281 246.395 58.9688C245.652 59.6094 244.676 59.9297 243.465 59.9297C242.254 59.9297 241.273 59.6133 240.523 58.9805C239.781 58.3477 239.41 57.5039 239.41 56.4492H241.812C241.812 56.9414 241.957 57.3242 242.246 57.5977C242.543 57.8633 242.949 57.9961 243.465 57.9961C243.973 57.9961 244.371 57.8633 244.66 57.5977C244.949 57.3242 245.094 56.9414 245.094 56.4492H247.52ZM100.918 100.316C100.785 102.152 100.105 103.598 98.8789 104.652C97.6602 105.707 96.0508 106.234 94.0508 106.234C91.8633 106.234 90.1406 105.5 88.8828 104.031C87.6328 102.555 87.0078 100.531 87.0078 97.9609V96.918C87.0078 95.2773 87.2969 93.832 87.875 92.582C88.4531 91.332 89.2773 90.375 90.3477 89.7109C91.4258 89.0391 92.6758 88.7031 94.0977 88.7031C96.0664 88.7031 97.6523 89.2305 98.8555 90.2852C100.059 91.3398 100.754 92.8203 100.941 94.7266H97.4258C97.3398 93.625 97.0312 92.8281 96.5 92.3359C95.9766 91.8359 95.1758 91.5859 94.0977 91.5859C92.9258 91.5859 92.0469 92.0078 91.4609 92.8516C90.8828 93.6875 90.5859 94.9883 90.5703 96.7539V98.043C90.5703 99.8867 90.8477 101.234 91.4023 102.086C91.9648 102.938 92.8477 103.363 94.0508 103.363C95.1367 103.363 95.9453 103.117 96.4766 102.625C97.0156 102.125 97.3242 101.355 97.4023 100.316H100.918ZM112.859 102.484H106.695L105.523 106H101.785L108.137 88.9375H111.395L117.781 106H114.043L112.859 102.484ZM107.645 99.6367H111.91L109.766 93.25L107.645 99.6367ZM129.605 88.9375H133.133V106H129.605V94.668L122.773 106H119.258V88.9375H122.773V100.293L129.605 88.9375ZM130.285 84.4492C130.285 85.4883 129.91 86.3281 129.16 86.9688C128.418 87.6094 127.441 87.9297 126.23 87.9297C125.02 87.9297 124.039 87.6133 123.289 86.9805C122.547 86.3477 122.176 85.5039 122.176 84.4492H124.578C124.578 84.9414 124.723 85.3242 125.012 85.5977C125.309 85.8633 125.715 85.9961 126.23 85.9961C126.738 85.9961 127.137 85.8633 127.426 85.5977C127.715 85.3242 127.859 84.9414 127.859 84.4492H130.285ZM149.023 91.7852H143.797V106H140.281V91.7852H135.125V88.9375H149.023V91.7852Z" fill="black"/>
</svg>
