<svg width="180" height="38" viewBox="0 0 180 38" fill="none" xmlns="http://www.w3.org/2000/svg">
<rect x="10" y="16" width="26" height="22" fill="#577998"/>
<ellipse cx="15.5" cy="15" rx="15.5" ry="15" fill="white"/>
<path d="M49.6562 15.7852H42.0391V19.0898H44.7812C46.7891 19.0898 48.3789 19.5781 49.5508 20.5547C50.7305 21.5234 51.3203 22.832 51.3203 24.4805C51.3203 26.1367 50.7344 27.4688 49.5625 28.4766C48.3984 29.4766 46.8477 29.9844 44.9102 30H38.4883V12.9375H49.6562V15.7852ZM42.0391 21.9258V27.1758H44.8398C45.7383 27.1758 46.4531 26.9297 46.9844 26.4375C47.5234 25.9453 47.793 25.2852 47.793 24.457C47.793 23.6836 47.5352 23.0742 47.0195 22.6289C46.5117 22.1758 45.8125 21.9414 44.9219 21.9258H42.0391ZM63.8359 22.6055H57.0859V27.1758H65.0078V30H53.5703V12.9375H64.9844V15.7852H57.0859V19.8516H63.8359V22.6055ZM80.9453 12.9375V30H77.418V15.7852H72.8711L72.5898 21.8086C72.4727 23.8398 72.2148 25.4414 71.8164 26.6133C71.418 27.7773 70.8359 28.6328 70.0703 29.1797C69.3047 29.7188 68.2578 29.9922 66.9297 30H66.0156V27.1758L66.6016 27.1172C67.4844 27 68.1133 26.4922 68.4883 25.5938C68.8711 24.6875 69.1133 23.0781 69.2148 20.7656L69.5078 12.9375H80.9453ZM98.0312 21.8555C98.0312 23.5352 97.7344 25.0078 97.1406 26.2734C96.5469 27.5391 95.6953 28.5156 94.5859 29.2031C93.4844 29.8906 92.2188 30.2344 90.7891 30.2344C89.375 30.2344 88.1133 29.8945 87.0039 29.2148C85.8945 28.5352 85.0352 27.5664 84.4258 26.3086C83.8164 25.043 83.5078 23.5898 83.5 21.9492V21.1055C83.5 19.4258 83.8008 17.9492 84.4023 16.6758C85.0117 15.3945 85.8672 14.4141 86.9688 13.7344C88.0781 13.0469 89.3438 12.7031 90.7656 12.7031C92.1875 12.7031 93.4492 13.0469 94.5508 13.7344C95.6602 14.4141 96.5156 15.3945 97.1172 16.6758C97.7266 17.9492 98.0312 19.4219 98.0312 21.0938V21.8555ZM94.4688 21.082C94.4688 19.293 94.1484 17.9336 93.5078 17.0039C92.8672 16.0742 91.9531 15.6094 90.7656 15.6094C89.5859 15.6094 88.6758 16.0703 88.0352 16.9922C87.3945 17.9062 87.0703 19.25 87.0625 21.0234V21.8555C87.0625 23.5977 87.3828 24.9492 88.0234 25.9102C88.6641 26.8711 89.5859 27.3516 90.7891 27.3516C91.9688 27.3516 92.875 26.8906 93.5078 25.9688C94.1406 25.0391 94.4609 23.6875 94.4688 21.9141V21.082ZM100.586 30V12.9375H106.562C108.633 12.9375 110.203 13.3359 111.273 14.1328C112.344 14.9219 112.879 16.082 112.879 17.6133C112.879 18.4492 112.664 19.1875 112.234 19.8281C111.805 20.4609 111.207 20.9258 110.441 21.2227C111.316 21.4414 112.004 21.8828 112.504 22.5469C113.012 23.2109 113.266 24.0234 113.266 24.9844C113.266 26.625 112.742 27.8672 111.695 28.7109C110.648 29.5547 109.156 29.9844 107.219 30H100.586ZM104.102 22.5703V27.1758H107.113C107.941 27.1758 108.586 26.9805 109.047 26.5898C109.516 26.1914 109.75 25.6445 109.75 24.9492C109.75 23.3867 108.941 22.5938 107.324 22.5703H104.102ZM104.102 20.0859H106.703C108.477 20.0547 109.363 19.3477 109.363 17.9648C109.363 17.1914 109.137 16.6367 108.684 16.3008C108.238 15.957 107.531 15.7852 106.562 15.7852H104.102V20.0859ZM129.93 21.8555C129.93 23.5352 129.633 25.0078 129.039 26.2734C128.445 27.5391 127.594 28.5156 126.484 29.2031C125.383 29.8906 124.117 30.2344 122.688 30.2344C121.273 30.2344 120.012 29.8945 118.902 29.2148C117.793 28.5352 116.934 27.5664 116.324 26.3086C115.715 25.043 115.406 23.5898 115.398 21.9492V21.1055C115.398 19.4258 115.699 17.9492 116.301 16.6758C116.91 15.3945 117.766 14.4141 118.867 13.7344C119.977 13.0469 121.242 12.7031 122.664 12.7031C124.086 12.7031 125.348 13.0469 126.449 13.7344C127.559 14.4141 128.414 15.3945 129.016 16.6758C129.625 17.9492 129.93 19.4219 129.93 21.0938V21.8555ZM126.367 21.082C126.367 19.293 126.047 17.9336 125.406 17.0039C124.766 16.0742 123.852 15.6094 122.664 15.6094C121.484 15.6094 120.574 16.0703 119.934 16.9922C119.293 17.9062 118.969 19.25 118.961 21.0234V21.8555C118.961 23.5977 119.281 24.9492 119.922 25.9102C120.562 26.8711 121.484 27.3516 122.688 27.3516C123.867 27.3516 124.773 26.8906 125.406 25.9688C126.039 25.0391 126.359 23.6875 126.367 21.9141V21.082ZM145.984 12.9375V30H142.457V15.7852H137.91L137.629 21.8086C137.512 23.8398 137.254 25.4414 136.855 26.6133C136.457 27.7773 135.875 28.6328 135.109 29.1797C134.344 29.7188 133.297 29.9922 131.969 30H131.055V27.1758L131.641 27.1172C132.523 27 133.152 26.4922 133.527 25.5938C133.91 24.6875 134.152 23.0781 134.254 20.7656L134.547 12.9375H145.984ZM163.07 21.8555C163.07 23.5352 162.773 25.0078 162.18 26.2734C161.586 27.5391 160.734 28.5156 159.625 29.2031C158.523 29.8906 157.258 30.2344 155.828 30.2344C154.414 30.2344 153.152 29.8945 152.043 29.2148C150.934 28.5352 150.074 27.5664 149.465 26.3086C148.855 25.043 148.547 23.5898 148.539 21.9492V21.1055C148.539 19.4258 148.84 17.9492 149.441 16.6758C150.051 15.3945 150.906 14.4141 152.008 13.7344C153.117 13.0469 154.383 12.7031 155.805 12.7031C157.227 12.7031 158.488 13.0469 159.59 13.7344C160.699 14.4141 161.555 15.3945 162.156 16.6758C162.766 17.9492 163.07 19.4219 163.07 21.0938V21.8555ZM159.508 21.082C159.508 19.293 159.188 17.9336 158.547 17.0039C157.906 16.0742 156.992 15.6094 155.805 15.6094C154.625 15.6094 153.715 16.0703 153.074 16.9922C152.434 17.9062 152.109 19.25 152.102 21.0234V21.8555C152.102 23.5977 152.422 24.9492 153.062 25.9102C153.703 26.8711 154.625 27.3516 155.828 27.3516C157.008 27.3516 157.914 26.8906 158.547 25.9688C159.18 25.0391 159.5 23.6875 159.508 21.9141V21.082ZM165.625 30V12.9375H171.602C173.672 12.9375 175.242 13.3359 176.312 14.1328C177.383 14.9219 177.918 16.082 177.918 17.6133C177.918 18.4492 177.703 19.1875 177.273 19.8281C176.844 20.4609 176.246 20.9258 175.48 21.2227C176.355 21.4414 177.043 21.8828 177.543 22.5469C178.051 23.2109 178.305 24.0234 178.305 24.9844C178.305 26.625 177.781 27.8672 176.734 28.7109C175.688 29.5547 174.195 29.9844 172.258 30H165.625ZM169.141 22.5703V27.1758H172.152C172.98 27.1758 173.625 26.9805 174.086 26.5898C174.555 26.1914 174.789 25.6445 174.789 24.9492C174.789 23.3867 173.98 22.5938 172.363 22.5703H169.141ZM169.141 20.0859H171.742C173.516 20.0547 174.402 19.3477 174.402 17.9648C174.402 17.1914 174.176 16.6367 173.723 16.3008C173.277 15.957 172.57 15.7852 171.602 15.7852H169.141V20.0859Z" fill="black"/>
</svg>
