<svg width="184" height="49" viewBox="0 0 184 49" fill="none" xmlns="http://www.w3.org/2000/svg">
<g filter="url(#filter0_d_244:94)">
<path d="M25.6667 17.1911L47.3336 0.000202179L68.9999 17.1911L47.3336 34.3823L25.6667 17.1911Z" fill="white"/>
<path d="M4 17.1911L25.6668 0.000198364L47.3336 17.1911L25.6668 34.3823L4 17.1911Z" fill="#3B557D"/>
<path d="M83.9668 35.9487C83.9668 36.9227 83.7197 37.7892 83.2256 38.5483C82.7314 39.3003 82.0189 39.8875 81.0879 40.3101C80.1569 40.7254 79.0648 40.9331 77.8115 40.9331C76.766 40.9331 75.8887 40.8615 75.1797 40.7183C74.4707 40.5679 73.7331 40.3101 72.9668 39.9448V36.1636C73.776 36.5789 74.6175 36.9048 75.4912 37.1411C76.3649 37.3703 77.167 37.4849 77.8975 37.4849C78.5277 37.4849 78.9896 37.3774 79.2832 37.1626C79.5768 36.9406 79.7236 36.6577 79.7236 36.314C79.7236 36.0991 79.6628 35.9129 79.541 35.7554C79.4264 35.5907 79.2367 35.4259 78.9717 35.2612C78.7139 35.0965 78.0192 34.7599 76.8877 34.2515C75.8636 33.786 75.0938 33.3348 74.5781 32.8979C74.0697 32.4611 73.6901 31.9598 73.4395 31.394C73.196 30.8283 73.0742 30.1587 73.0742 29.3853C73.0742 27.9386 73.6006 26.8107 74.6533 26.0015C75.7061 25.1922 77.1527 24.7876 78.9932 24.7876C80.6188 24.7876 82.2767 25.1636 83.9668 25.9155L82.667 29.1919C81.1989 28.5187 79.9313 28.1821 78.8643 28.1821C78.3128 28.1821 77.9118 28.2788 77.6611 28.4722C77.4105 28.6655 77.2852 28.9054 77.2852 29.1919C77.2852 29.4998 77.4427 29.7756 77.7578 30.019C78.0801 30.2625 78.9466 30.7065 80.3574 31.3511C81.7109 31.9598 82.6491 32.6151 83.1719 33.3169C83.7018 34.0116 83.9668 34.8888 83.9668 35.9487ZM101.09 32.8442C101.09 35.4868 100.442 37.4956 99.1455 38.8706C97.8493 40.2456 95.9515 40.9331 93.4521 40.9331C90.9886 40.9331 89.098 40.242 87.7803 38.8599C86.4697 37.4777 85.8145 35.4653 85.8145 32.8228C85.8145 30.2088 86.4661 28.2144 87.7695 26.8394C89.0801 25.4572 90.9814 24.7661 93.4736 24.7661C95.973 24.7661 97.8672 25.45 99.1562 26.8179C100.445 28.1857 101.09 30.1945 101.09 32.8442ZM90.2832 32.8442C90.2832 35.8807 91.3395 37.3989 93.4521 37.3989C94.5264 37.3989 95.3213 37.0301 95.8369 36.2925C96.3597 35.5549 96.6211 34.4054 96.6211 32.8442C96.6211 31.2759 96.3561 30.1193 95.8262 29.3745C95.3034 28.6226 94.5192 28.2466 93.4736 28.2466C91.3467 28.2466 90.2832 29.7791 90.2832 32.8442ZM108.169 35.0034V40.7183H103.926V25.0132H109.071C113.34 25.0132 115.474 26.5601 115.474 29.6538C115.474 31.4728 114.586 32.88 112.81 33.8755L117.386 40.7183H112.573L109.243 35.0034H108.169ZM108.169 31.813H108.964C110.446 31.813 111.188 31.1577 111.188 29.8472C111.188 28.7658 110.461 28.2251 109.007 28.2251H108.169V31.813ZM133.51 32.8442C133.51 35.4868 132.862 37.4956 131.565 38.8706C130.269 40.2456 128.371 40.9331 125.872 40.9331C123.409 40.9331 121.518 40.242 120.2 38.8599C118.89 37.4777 118.234 35.4653 118.234 32.8228C118.234 30.2088 118.886 28.2144 120.189 26.8394C121.5 25.4572 123.401 24.7661 125.894 24.7661C128.393 24.7661 130.287 25.45 131.576 26.8179C132.865 28.1857 133.51 30.1945 133.51 32.8442ZM122.703 32.8442C122.703 35.8807 123.759 37.3989 125.872 37.3989C126.946 37.3989 127.741 37.0301 128.257 36.2925C128.78 35.5549 129.041 34.4054 129.041 32.8442C129.041 31.2759 128.776 30.1193 128.246 29.3745C127.723 28.6226 126.939 28.2466 125.894 28.2466C123.767 28.2466 122.703 29.7791 122.703 32.8442ZM149.763 40.7183H144.972L141.867 34.7134L140.61 35.4653V40.7183H136.346V25.0132H140.61V31.8345C140.825 31.4119 141.258 30.7424 141.91 29.8257L145.208 25.0132H149.849L144.896 32.0493L149.763 40.7183ZM151.471 40.7183V25.0132H155.735V40.7183H151.471ZM174.094 40.7183H168.529L162.793 29.6538H162.696C162.832 31.394 162.9 32.7225 162.9 33.6392V40.7183H159.141V25.0132H164.684L170.398 35.9272H170.463C170.363 34.3446 170.312 33.0734 170.312 32.1138V25.0132H174.094V40.7183Z" fill="#3B557D"/>
</g>
<defs>
<filter id="filter0_d_244:94" x="0" y="0" width="188" height="51" filterUnits="userSpaceOnUse" color-interpolation-filters="sRGB">
<feFlood flood-opacity="0" result="BackgroundImageFix"/>
<feColorMatrix in="SourceAlpha" type="matrix" values="0 0 0 0 0 0 0 0 0 0 0 0 0 0 0 0 0 0 127 0" result="hardAlpha"/>
<feOffset dy="4"/>
<feGaussianBlur stdDeviation="2"/>
<feComposite in2="hardAlpha" operator="out"/>
<feColorMatrix type="matrix" values="0 0 0 0 0 0 0 0 0 0 0 0 0 0 0 0 0 0 0.25 0"/>
<feBlend mode="normal" in2="BackgroundImageFix" result="effect1_dropShadow_244:94"/>
<feBlend mode="normal" in="SourceGraphic" in2="effect1_dropShadow_244:94" result="shape"/>
</filter>
</defs>
</svg>
